<svg width="4" height="29" viewBox="0 0 4 29" fill="none" xmlns="http://www.w3.org/2000/svg">
<g clip-path="url(#clip0_408_6)">
<path d="M0 3.625C0 2.62246 0.89375 1.8125 2 1.8125C3.10625 1.8125 4 2.62246 4 3.625V18.125C4 19.1275 3.10625 19.9375 2 19.9375C0.89375 19.9375 0 19.1275 0 18.125V3.625ZM2 27.1875C1.33696 27.1875 0.701074 26.9488 0.232233 26.5239C-0.236608 26.099 -0.5 25.5228 -0.5 24.9219C-0.5 24.321 -0.236608 23.7447 0.232233 23.3198C0.701074 22.8949 1.33696 22.6562 2 22.6562C2.66304 22.6562 3.29893 22.8949 3.76777 23.3198C4.23661 23.7447 4.5 24.321 4.5 24.9219C4.5 25.5228 4.23661 26.099 3.76777 26.5239C3.29893 26.9488 2.66304 27.1875 2 27.1875Z" fill="white"/>
</g>
<defs>
<clipPath id="clip0_408_6">
<rect width="4" height="29" fill="white" transform="matrix(-1 0 0 1 4 0)"/>
</clipPath>
</defs>
</svg>
