<svg width="23" height="21" viewBox="0 0 23 21" fill="none" xmlns="http://www.w3.org/2000/svg">
<path d="M21.5625 1.31248C21.5625 0.857209 21.3064 0.434748 20.8797 0.196857C20.4529 -0.0410335 19.9273 -0.0656429 19.4826 0.139435L18.0451 0.795685C17.3354 1.11971 17.0479 1.90721 17.4027 2.55526C17.6543 3.01463 18.1619 3.28123 18.6875 3.28123V6.56248C17.8924 6.56248 17.25 7.14901 17.25 7.87498C17.25 8.60096 17.8924 9.18748 18.6875 9.18748H20.125H21.5625C22.3576 9.18748 23 8.60096 23 7.87498C23 7.14901 22.3576 6.56248 21.5625 6.56248V1.31248ZM1.4375 2.62498C0.642383 2.62498 0 3.21151 0 3.93748C0 4.66346 0.642383 5.24998 1.4375 5.24998H2.1248L6.1498 10.5L2.1248 15.75H1.4375C0.642383 15.75 0 16.3365 0 17.0625C0 17.7885 0.642383 18.375 1.4375 18.375H2.875C3.34219 18.375 3.78242 18.1658 4.05195 17.8172L7.90625 12.7887L11.7605 17.8172C12.0301 18.1699 12.4703 18.375 12.9375 18.375H14.375C15.1701 18.375 15.8125 17.7885 15.8125 17.0625C15.8125 16.3365 15.1701 15.75 14.375 15.75H13.6877L9.6627 10.5L13.6877 5.24998H14.375C15.1701 5.24998 15.8125 4.66346 15.8125 3.93748C15.8125 3.21151 15.1701 2.62498 14.375 2.62498H12.9375C12.4703 2.62498 12.0301 2.83416 11.7605 3.18279L7.90625 8.21131L4.05195 3.18279C3.78242 2.83416 3.34219 2.62498 2.875 2.62498H1.4375Z" fill="white"/>
</svg>
