<svg width="23" height="19" viewBox="0 0 23 19" fill="none" xmlns="http://www.w3.org/2000/svg">
<path d="M11.2844 2.20332C11.6038 1.08359 12.6021 0.3125 13.7361 0.3125H21.7222C22.429 0.3125 23 0.899023 23 1.625C23 2.35098 22.429 2.9375 21.7222 2.9375H13.7361L9.53142 17.7441C9.38767 18.2486 8.9684 18.6137 8.46128 18.6793C7.95417 18.7449 7.45903 18.4906 7.20347 18.0395L3.09861 10.8125H1.27778C0.571007 10.8125 0 10.226 0 9.5C0 8.77402 0.571007 8.1875 1.27778 8.1875H3.09861C4.00903 8.1875 4.84757 8.68379 5.30677 9.4918L7.91024 14.0773L11.2844 2.20332ZM15.7087 8.57305C16.2078 8.06035 17.0184 8.06035 17.5175 8.57305L19.1667 10.267L20.8198 8.56895C21.3189 8.05625 22.1295 8.05625 22.6286 8.56895C23.1278 9.08164 23.1278 9.91426 22.6286 10.427L20.9755 12.125L22.6286 13.823C23.1278 14.3357 23.1278 15.1684 22.6286 15.6811C22.1295 16.1938 21.3189 16.1938 20.8198 15.6811L19.1667 13.983L17.5135 15.6811C17.0144 16.1938 16.2038 16.1938 15.7047 15.6811C15.2056 15.1684 15.2056 14.3357 15.7047 13.823L17.3578 12.125L15.7047 10.427C15.2056 9.91426 15.2056 9.08164 15.7047 8.56895L15.7087 8.57305Z" fill="white"/>
</svg>
